<?xml version="1.0" encoding="iso-8859-1"?>
<!-- Generator: Adobe Illustrator 19.0.0, SVG Export Plug-In . SVG Version: 6.00 Build 0)  -->
<svg version="1.1" id="Layer_1" xmlns="http://www.w3.org/2000/svg" xmlns:xlink="http://www.w3.org/1999/xlink" x="0px" y="0px"
	 viewBox="0 0 502.911 502.911" style="enable-background:new 0 0 502.911 502.911;" xml:space="preserve">
<path style="fill:#7DCEEA;" d="M0,290.4c12.8-2.4,25.6-4,39.2-4c73.6,0,136.8,44,164.8,106.4l200-200C320,82.4,188,11.2,38.4,11.2
	C25.6,11.2,12.8,12,0,12.8V290.4z"/>
<path style="fill:#61BBE2;" d="M0,290.4c12.8-2.4,25.6-4,39.2-4c73.6,0,136.8,44,164.8,106.4l200-200"/>
<path style="fill:#AABEBF;" d="M501.6,474.4c2.4,2.4,1.6,8.8-3.2,12.8l0,0c-4.8,4.8-10.4,5.6-12.8,3.2L332.8,337.6
	c-2.4-2.4-1.6-8.8,3.2-12.8l0,0c4.8-4.8,10.4-5.6,12.8-3.2L501.6,474.4z"/>
<path style="fill:#889E9E;" d="M336,324.8L336,324.8c4.8-4.8,10.4-5.6,12.8-3.2l152.8,152.8c2.4,2.4,1.6,8.8-3.2,12.8l0,0"/>
<rect id="SVGCleanerId_0" x="179.2" y="352.8" style="fill:#00233F;" width="47.2" height="47.2"/>
<rect id="SVGCleanerId_1" x="197.6" y="334.4" style="fill:#00233F;" width="47.2" height="47.2"/>
<rect id="SVGCleanerId_2" x="216" y="316" style="fill:#00233F;" width="47.2" height="47.2"/>
<rect id="SVGCleanerId_3" x="234.4" y="296.8" style="fill:#00233F;" width="47.2" height="47.2"/>
<rect id="SVGCleanerId_4" x="252.8" y="278.4" style="fill:#00233F;" width="47.2" height="47.2"/>
<rect id="SVGCleanerId_5" x="271.2" y="260" style="fill:#00233F;" width="47.2" height="48"/>
<rect id="SVGCleanerId_6" x="289.6" y="241.6" style="fill:#00233F;" width="47.2" height="47.2"/>
<rect id="SVGCleanerId_7" x="308.8" y="223.2" style="fill:#00233F;" width="47.2" height="47.2"/>
<rect id="SVGCleanerId_8" x="327.2" y="204.8" style="fill:#00233F;" width="47.2" height="47.2"/>
<rect id="SVGCleanerId_9" x="345.6" y="186.4" style="fill:#00233F;" width="47.2" height="47.2"/>
<rect id="SVGCleanerId_10" x="364" y="168" style="fill:#00233F;" width="47.2" height="47.2"/>
<g>
	<rect id="SVGCleanerId_0_1_" x="179.2" y="352.8" style="fill:#00233F;" width="47.2" height="47.2"/>
</g>
<g>
	<rect id="SVGCleanerId_1_1_" x="197.6" y="334.4" style="fill:#00233F;" width="47.2" height="47.2"/>
</g>
<g>
	<rect id="SVGCleanerId_2_1_" x="216" y="316" style="fill:#00233F;" width="47.2" height="47.2"/>
</g>
<g>
	<rect id="SVGCleanerId_3_1_" x="234.4" y="296.8" style="fill:#00233F;" width="47.2" height="47.2"/>
</g>
<g>
	<rect id="SVGCleanerId_4_1_" x="252.8" y="278.4" style="fill:#00233F;" width="47.2" height="47.2"/>
</g>
<g>
	<rect id="SVGCleanerId_5_1_" x="271.2" y="260" style="fill:#00233F;" width="47.2" height="48"/>
</g>
<g>
	<rect id="SVGCleanerId_6_1_" x="289.6" y="241.6" style="fill:#00233F;" width="47.2" height="47.2"/>
</g>
<g>
	<rect id="SVGCleanerId_7_1_" x="308.8" y="223.2" style="fill:#00233F;" width="47.2" height="47.2"/>
</g>
<g>
	<rect id="SVGCleanerId_8_1_" x="327.2" y="204.8" style="fill:#00233F;" width="47.2" height="47.2"/>
</g>
<g>
	<rect id="SVGCleanerId_9_1_" x="345.6" y="186.4" style="fill:#00233F;" width="47.2" height="47.2"/>
</g>
<g>
	<rect id="SVGCleanerId_10_1_" x="364" y="168" style="fill:#00233F;" width="47.2" height="47.2"/>
</g>
<polygon style="fill:#0A4D7A;" points="189.6,363.2 208,363.2 208,344.8 227.2,344.8 227.2,326.4 245.6,326.4 245.6,308 264,308 
	264,289.6 282.4,289.6 282.4,271.2 300.8,271.2 300.8,252.8 319.2,252.8 319.2,234.4 337.6,234.4 337.6,215.2 356,215.2 356,196.8 
	375.2,196.8 375.2,178.4 411.2,178.4 411.2,168 364,168 364,186.4 345.6,186.4 345.6,204.8 327.2,204.8 327.2,223.2 308.8,223.2 
	308.8,241.6 289.6,241.6 289.6,260 271.2,260 271.2,278.4 252.8,278.4 252.8,296.8 234.4,296.8 234.4,316 216,316 216,334.4 
	197.6,334.4 197.6,352.8 179.2,352.8 179.2,400 189.6,400 "/>
<path style="fill:#C91911;" d="M436.8,162.4c8,8,16.8,12.8,0.8,28.8L202.4,426.4c-16,16-20.8,7.2-28.8-0.8l0,0c-8-8-1.6-28,14.4-44
	L393.6,176C409.6,160.8,428.8,154.4,436.8,162.4L436.8,162.4z"/>
<g>
	<path style="fill:#9E0707;" d="M436.8,162.4L436.8,162.4c8,8,16.8,12.8,0.8,28.8L202.4,426.4c-16,16-20.8,7.2-28.8-0.8l0,0"/>
	<path style="fill:#9E0707;" d="M362.4,261.6c14.4,14.4,21.6,61.6-3.2,86.4c-24.8,24.8-72,17.6-86.4,3.2s8.8-31.2,33.6-56
		C332,271.2,348,247.2,362.4,261.6z"/>
</g>
<g>
	<path style="fill:#C91911;" d="M342.4,292c1.6,1.6,1.6,4.8,0,7.2l-32,32c-1.6,1.6-4.8,1.6-7.2,0l0,0c-1.6-1.6-1.6-4.8,0-7.2
		l31.2-31.2C336.8,290.4,340,290.4,342.4,292L342.4,292z"/>
	<path style="fill:#C91911;" d="M348.8,316c0.8,0.8,0.8,3.2,0,4l-17.6,17.6c-0.8,0.8-3.2,0.8-4,0l0,0c-0.8-0.8-0.8-3.2,0-4
		l17.6-17.6C346.4,315.2,348,315.2,348.8,316L348.8,316z"/>
</g>
<g>
	<ellipse style="fill:#FDFFFF;" cx="64" cy="93.6" rx="4" ry="24"/>
	<ellipse style="fill:#FDFFFF;" cx="64" cy="93.6" rx="24" ry="4"/>
	<ellipse style="fill:#FDFFFF;" cx="264" cy="121.6" rx="7.2" ry="46.4"/>
	<ellipse style="fill:#FDFFFF;" cx="264" cy="121.6" rx="46.4" ry="7.2"/>
	
		<ellipse transform="matrix(0.7076 -0.7066 0.7066 0.7076 -117.0702 111.8446)" style="fill:#FDFFFF;" cx="76.608" cy="197.38" rx="24" ry="4"/>
	
		<ellipse transform="matrix(0.7071 0.7071 -0.7071 0.7071 161.7381 3.3182)" style="fill:#FDFFFF;" cx="76.864" cy="196.894" rx="24" ry="4"/>
	<ellipse style="fill:#FDFFFF;" cx="172" cy="128.8" rx="14.4" ry="2.4"/>
	<ellipse style="fill:#FDFFFF;" cx="172" cy="128.8" rx="2.4" ry="14.4"/>
	
		<ellipse transform="matrix(0.7093 -0.7049 0.7049 0.7093 -16.9881 106.1996)" style="fill:#FDFFFF;" cx="120.266" cy="73.697" rx="11.2" ry="1.6"/>
	
		<ellipse transform="matrix(0.706 0.7082 -0.7082 0.706 87.9158 -63.3617)" style="fill:#FDFFFF;" cx="120.274" cy="74.21" rx="11.2" ry="1.6"/>
	
		<ellipse transform="matrix(0.7093 -0.7049 0.7049 0.7093 -75.2067 140.5912)" style="fill:#FDFFFF;" cx="132.855" cy="161.479" rx="11.2" ry="1.6"/>
	
		<ellipse transform="matrix(0.706 0.7082 -0.7082 0.706 153.4762 -46.7723)" style="fill:#FDFFFF;" cx="133.073" cy="161.469" rx="11.2" ry="1.6"/>
	<circle style="fill:#FDFFFF;" cx="150.4" cy="227.2" r="4"/>
	<circle style="fill:#FDFFFF;" cx="209.6" cy="63.2" r="15.2"/>
	<circle style="fill:#FDFFFF;" cx="63.2" cy="155.2" r="1.6"/>
	<circle style="fill:#FDFFFF;" cx="208.8" cy="213.6" r="1.6"/>
	<circle style="fill:#FDFFFF;" cx="272.8" cy="208" r="8"/>
	<circle style="fill:#FDFFFF;" cx="219.2" cy="166.4" r="8.8"/>
	<circle style="fill:#FDFFFF;" cx="163.2" cy="70.4" r="3.2"/>
	<circle style="fill:#FDFFFF;" cx="64" cy="287.2" r="17.6"/>
	<circle style="fill:#FDFFFF;" cx="124.8" cy="269.6" r="4"/>
	<circle style="fill:#FDFFFF;" cx="174.4" cy="256" r="5.6"/>
</g>
<g>
</g>
<g>
</g>
<g>
</g>
<g>
</g>
<g>
</g>
<g>
</g>
<g>
</g>
<g>
</g>
<g>
</g>
<g>
</g>
<g>
</g>
<g>
</g>
<g>
</g>
<g>
</g>
<g>
</g>
</svg>
